<?xml version="1.0" encoding="UTF-8"?>
<!DOCTYPE svg PUBLIC "-//W3C//DTD SVG 1.1//EN" "http://www.w3.org/Graphics/SVG/1.1/DTD/svg11.dtd">
<svg xmlns="http://www.w3.org/2000/svg" version="1.1" width="122px" height="122px" style="shape-rendering:geometricPrecision; text-rendering:geometricPrecision; image-rendering:optimizeQuality; fill-rule:evenodd; clip-rule:evenodd" xmlns:xlink="http://www.w3.org/1999/xlink">
<g><path style="opacity:1" fill="#fefffe" d="M -0.5,-0.5 C 40.1667,-0.5 80.8333,-0.5 121.5,-0.5C 121.5,40.1667 121.5,80.8333 121.5,121.5C 80.8333,121.5 40.1667,121.5 -0.5,121.5C -0.5,80.8333 -0.5,40.1667 -0.5,-0.5 Z"/></g>
<g><path style="opacity:1" fill="#000000" d="M 89.5,10.5 C 86.8333,10.5 84.1667,10.5 81.5,10.5C 81.5,7.5 81.5,4.5 81.5,1.5C 84.1667,1.5 86.8333,1.5 89.5,1.5C 89.5,4.5 89.5,7.5 89.5,10.5 Z"/></g>
<g><path style="opacity:1" fill="#d93b25" d="M 55.5,9.5 C 58.1667,9.5 60.8333,9.5 63.5,9.5C 63.5,12.1667 63.5,14.8333 63.5,17.5C 60.8333,17.5 58.1667,17.5 55.5,17.5C 55.5,14.8333 55.5,12.1667 55.5,9.5 Z"/></g>
<g><path style="opacity:1" fill="#ec6e56" d="M 81.5,10.5 C 84.1667,10.5 86.8333,10.5 89.5,10.5C 90.8333,10.5 92.1667,10.5 93.5,10.5C 93.5,42.5 93.5,74.5 93.5,106.5C 92.1667,106.5 90.8333,106.5 89.5,106.5C 86.8333,106.5 84.1667,106.5 81.5,106.5C 80.1667,106.5 78.8333,106.5 77.5,106.5C 77.5,74.5 77.5,42.5 77.5,10.5C 78.8333,10.5 80.1667,10.5 81.5,10.5 Z"/></g>
<g><path style="opacity:1" fill="#000000" d="M 23.5,25.5 C 26.1667,25.5 28.8333,25.5 31.5,25.5C 31.5,28.1667 31.5,30.8333 31.5,33.5C 28.8333,33.5 26.1667,33.5 23.5,33.5C 23.5,30.8333 23.5,28.1667 23.5,25.5 Z"/></g>
<g><path style="opacity:1" fill="#000000" d="M 35.5,25.5 C 38.1667,25.5 40.8333,25.5 43.5,25.5C 43.5,28.1667 43.5,30.8333 43.5,33.5C 40.8333,33.5 38.1667,33.5 35.5,33.5C 35.5,30.8333 35.5,28.1667 35.5,25.5 Z"/></g>
<g><path style="opacity:1" fill="#000000" d="M 47.5,25.5 C 50.1667,25.5 52.8333,25.5 55.5,25.5C 55.5,28.1667 55.5,30.8333 55.5,33.5C 52.8333,33.5 50.1667,33.5 47.5,33.5C 47.5,30.8333 47.5,28.1667 47.5,25.5 Z"/></g>
<g><path style="opacity:1" fill="#d93b25" d="M 63.5,25.5 C 66.1667,25.5 68.8333,25.5 71.5,25.5C 71.5,28.1667 71.5,30.8333 71.5,33.5C 68.8333,33.5 66.1667,33.5 63.5,33.5C 63.5,30.8333 63.5,28.1667 63.5,25.5 Z"/></g>
<g><path style="opacity:1" fill="#d93b25" d="M 55.5,41.5 C 58.1667,41.5 60.8333,41.5 63.5,41.5C 63.5,44.1667 63.5,46.8333 63.5,49.5C 60.8333,49.5 58.1667,49.5 55.5,49.5C 55.5,46.8333 55.5,44.1667 55.5,41.5 Z"/></g>
<g><path style="opacity:1" fill="#d93b25" d="M 31.5,68.5 C 34.1667,68.5 36.8333,68.5 39.5,68.5C 39.5,71.1667 39.5,73.8333 39.5,76.5C 36.8333,76.5 34.1667,76.5 31.5,76.5C 31.5,73.8333 31.5,71.1667 31.5,68.5 Z"/></g>
<g><path style="opacity:1" fill="#d93b25" d="M 23.5,84.5 C 26.1667,84.5 28.8333,84.5 31.5,84.5C 31.5,87.1667 31.5,89.8333 31.5,92.5C 28.8333,92.5 26.1667,92.5 23.5,92.5C 23.5,89.8333 23.5,87.1667 23.5,84.5 Z"/></g>
<g><path style="opacity:1" fill="#000000" d="M 39.5,84.5 C 42.1667,84.5 44.8333,84.5 47.5,84.5C 47.5,87.1667 47.5,89.8333 47.5,92.5C 44.8333,92.5 42.1667,92.5 39.5,92.5C 39.5,89.8333 39.5,87.1667 39.5,84.5 Z"/></g>
<g><path style="opacity:1" fill="#000000" d="M 51.5,84.5 C 54.1667,84.5 56.8333,84.5 59.5,84.5C 59.5,87.1667 59.5,89.8333 59.5,92.5C 56.8333,92.5 54.1667,92.5 51.5,92.5C 51.5,89.8333 51.5,87.1667 51.5,84.5 Z"/></g>
<g><path style="opacity:1" fill="#000000" d="M 63.5,84.5 C 66.1667,84.5 68.8333,84.5 71.5,84.5C 71.5,87.1667 71.5,89.8333 71.5,92.5C 68.8333,92.5 66.1667,92.5 63.5,92.5C 63.5,89.8333 63.5,87.1667 63.5,84.5 Z"/></g>
<g><path style="opacity:1" fill="#d93b25" d="M 31.5,100.5 C 34.1667,100.5 36.8333,100.5 39.5,100.5C 39.5,103.167 39.5,105.833 39.5,108.5C 36.8333,108.5 34.1667,108.5 31.5,108.5C 31.5,105.833 31.5,103.167 31.5,100.5 Z"/></g>
<g><path style="opacity:1" fill="#000000" d="M 81.5,106.5 C 84.1667,106.5 86.8333,106.5 89.5,106.5C 89.5,110.833 89.5,115.167 89.5,119.5C 86.8333,119.5 84.1667,119.5 81.5,119.5C 81.5,115.167 81.5,110.833 81.5,106.5 Z"/></g>
</svg>
