<?xml version="1.0" encoding="utf-8"?>
<svg width="16pt" height="16pt" viewBox="0 0 16 16" version="1.1" xmlns="http://www.w3.org/2000/svg">
  <path fill-rule="evenodd" d="M 12.149 12.122 L 12.149 12.507 C 12.149 12.776 12.103 13.032 12.038 13.28 L 13.278 13.28 L 13.278 14.439 L 11.439 14.439 C 10.866 15.138 9.999 15.596 9.02 15.596 C 8.042 15.596 7.176 15.138 6.602 14.439 L 4.676 14.439 L 4.676 13.28 L 6.005 13.28 C 5.94 13.032 5.893 12.776 5.893 12.507 L 5.893 12.122 L 4.676 12.122 L 4.676 10.964 L 5.893 10.964 L 5.893 10.193 C 5.893 10.06 5.916 9.934 5.932 9.806 L 4.676 9.806 L 4.676 8.647 L 6.329 8.647 C 6.629 8.144 7.065 7.734 7.592 7.463 L 6.492 6.379 L 7.322 5.561 L 8.899 7.116 C 8.939 7.115 8.935 7.108 8.977 7.108 C 8.991 7.108 9.048 7.115 9.062 7.116 L 10.631 5.561 L 11.462 6.379 L 10.394 7.433 C 10.945 7.703 11.402 8.125 11.712 8.647 L 13.278 8.647 L 13.278 9.806 L 12.109 9.806 C 12.125 9.934 12.149 10.06 12.149 10.193 L 12.149 10.964 L 13.278 10.964 L 13.278 12.122 L 12.149 12.122 Z M 7.686 9.86 L 7.686 10.937 L 10.268 10.937 L 10.268 9.86 L 7.686 9.86 Z M 7.686 12.011 L 7.686 13.087 L 10.268 13.087 L 10.268 12.011 L 7.686 12.011 Z" style="fill: rgb(89, 168, 105);"/>
  <path d="M14.6 8.46 C 18 0 3 -2 3 9.5" style="stroke: rgb(237, 162, 0);stroke-width:1.3;fill-opacity: 0" />
  <path d="M14.999 8.20 C 14.14 7.276 11.1 8 13 2.9" style="stroke: rgb(237, 162, 0);stroke-width:1;fill-opacity: 0" />
  <path d="M13 2.9 Q 10 3 10 4" style="stroke: rgb(237, 162, 0);stroke-width:0.3;fill-opacity: 0" />
  <circle cx="14.7" cy="9.5" r="0.7" style="stroke:black; stroke-width:0; fill:red" />
</svg>